<?xml version="1.0" encoding="iso-8859-1"?>
<!-- Generator: Adobe Illustrator 19.0.0, SVG Export Plug-In . SVG Version: 6.00 Build 0)  -->
<svg version="1.1" id="Layer_1" xmlns="http://www.w3.org/2000/svg" xmlns:xlink="http://www.w3.org/1999/xlink" x="0px" y="0px"
	 viewBox="0 0 512 512" style="enable-background:new 0 0 512 512;" xml:space="preserve">
<g>
	<g>
		<g>
			<path d="M478.26,0H33.74C15.136,0,0,15.136,0,33.74v444.52C0,496.864,15.136,512,33.74,512h444.52
				c18.604,0,33.74-15.136,33.74-33.74V33.74C511.999,15.136,496.864,0,478.26,0z M496.169,478.26h-0.001
				c0,9.875-8.033,17.909-17.909,17.909H33.74c-9.875,0-17.909-8.034-17.909-17.909V33.74c0-9.875,8.033-17.909,17.909-17.909
				h444.52c9.875,0,17.909,8.034,17.909,17.909V478.26z"/>
			<path d="M469.704,32.011H42.295c-5.671,0-10.285,4.614-10.285,10.285v427.409c0,5.671,4.614,10.285,10.285,10.285h427.408
				c5.671,0,10.285-4.614,10.285-10.285V42.295C479.989,36.625,475.374,32.011,469.704,32.011z M464.157,248.084h-48.103v15.831
				h48.103v200.243H263.916v-48.103h-15.831v48.103H47.842V263.916h48.103v-15.831H47.842V47.843h200.243v48.103h15.831V47.843
				h200.242V248.084z"/>
			<rect x="247.995" y="248.09" width="16" height="15.831"/>
			<rect x="111.95" y="248.09" width="128.045" height="15.831"/>
			<rect x="248.09" y="159.972" width="15.831" height="80.023"/>
			<rect x="215.983" y="320.112" width="16" height="15.831"/>
			<rect x="247.995" y="320.112" width="16" height="15.831"/>
			<rect x="280.006" y="320.112" width="16" height="15.831"/>
		</g>
	</g>
</g>
<g>
</g>
<g>
</g>
<g>
</g>
<g>
</g>
<g>
</g>
<g>
</g>
<g>
</g>
<g>
</g>
<g>
</g>
<g>
</g>
<g>
</g>
<g>
</g>
<g>
</g>
<g>
</g>
<g>
</g>
</svg>
