<?xml version="1.0" encoding="iso-8859-1"?>
<!-- Generator: Adobe Illustrator 19.0.0, SVG Export Plug-In . SVG Version: 6.00 Build 0)  -->
<svg version="1.1" id="Layer_1" xmlns="http://www.w3.org/2000/svg" xmlns:xlink="http://www.w3.org/1999/xlink" x="0px" y="0px"
	 viewBox="0 0 512 512" style="enable-background:new 0 0 512 512;" xml:space="preserve">
<g>
	<g>
		<g>
			<path d="M0,382.038h480.493V129.962H0V382.038z M15.783,145.745H464.71v220.509H15.783V145.745z"/>
			<polygon points="488.355,161.467 488.355,177.25 496.217,177.25 496.217,334.75 488.355,334.75 488.355,350.533 512,350.533 
				512,161.467 			"/>
			<path d="M31.505,350.533h409.606V161.467H31.505V350.533z M425.329,334.75h-36.067l36.067-36.067V334.75z M425.329,276.359
				l-58.39,58.39h-48.565l106.955-106.954V276.359z M425.329,177.25v28.221L296.05,334.75h-48.566L404.984,177.25H425.329z
				 M382.661,177.25L225.162,334.75h-48.565L334.096,177.25H382.661z M311.773,177.25L154.274,334.75h-48.565L263.208,177.25
				H311.773z M240.884,177.25L83.386,334.75H47.288v-12.469l145.03-145.03H240.884z M47.288,177.25h51.82l-51.82,51.82V177.25z
				 M47.288,251.393l74.142-74.142h48.566L47.288,299.958C47.288,299.958,47.288,251.393,47.288,251.393z"/>
		</g>
	</g>
</g>
<g>
</g>
<g>
</g>
<g>
</g>
<g>
</g>
<g>
</g>
<g>
</g>
<g>
</g>
<g>
</g>
<g>
</g>
<g>
</g>
<g>
</g>
<g>
</g>
<g>
</g>
<g>
</g>
<g>
</g>
</svg>
