<?xml version="1.0" encoding="iso-8859-1"?>
<!-- Generator: Adobe Illustrator 19.0.0, SVG Export Plug-In . SVG Version: 6.00 Build 0)  -->
<svg version="1.1" id="Layer_1" xmlns="http://www.w3.org/2000/svg" xmlns:xlink="http://www.w3.org/1999/xlink" x="0px" y="0px"
	 viewBox="0 0 512.001 512.001" style="enable-background:new 0 0 512.001 512.001;" xml:space="preserve">
<g>
	<g>
		<g>
			<path d="M512,20.02H0v119.614h40.04v352.346h431.921V139.635h40.04V20.02H512z M456.449,476.47H55.552V139.635h400.898V476.47z
				 M496.488,124.124H471.96H40.04H15.512V35.532h480.977V124.124z"/>
			<path d="M343.835,172.171H168.165v63.559h175.669V172.171z M328.323,220.218H183.677v-32.535h144.646V220.218z"/>
			<rect x="167.909" y="260.256" width="176.172" height="15.512"/>
			<rect x="167.909" y="292.293" width="104.104" height="15.512"/>
			<rect x="167.909" y="324.32" width="48.045" height="15.512"/>
			<rect x="231.972" y="324.32" width="64.063" height="15.512"/>
			<rect x="312.054" y="324.32" width="32.032" height="15.512"/>
			<rect x="167.909" y="356.357" width="16.015" height="15.512"/>
			<rect x="199.946" y="356.357" width="16.015" height="15.512"/>
			<rect x="231.972" y="356.357" width="16.015" height="15.512"/>
			<rect x="264.009" y="356.357" width="16.015" height="15.512"/>
			<rect x="296.036" y="356.357" width="16.015" height="15.512"/>
			<rect x="328.073" y="356.357" width="16.015" height="15.512"/>
		</g>
	</g>
</g>
<g>
</g>
<g>
</g>
<g>
</g>
<g>
</g>
<g>
</g>
<g>
</g>
<g>
</g>
<g>
</g>
<g>
</g>
<g>
</g>
<g>
</g>
<g>
</g>
<g>
</g>
<g>
</g>
<g>
</g>
</svg>
