<?xml version="1.0" encoding="iso-8859-1"?>
<!-- Generator: Adobe Illustrator 19.0.0, SVG Export Plug-In . SVG Version: 6.00 Build 0)  -->
<svg version="1.1" id="Layer_1" xmlns="http://www.w3.org/2000/svg" xmlns:xlink="http://www.w3.org/1999/xlink" x="0px" y="0px"
	 viewBox="0 0 512 512" style="enable-background:new 0 0 512 512;" xml:space="preserve">
<g>
	<g>
		<g>
			<path d="M0,88.065v335.871h512V88.065H0z M496.364,408.3H15.636V103.7h480.729V408.3z"/>
			<rect x="39.84" y="128.098" width="16.011" height="15.636"/>
			<rect x="71.865" y="128.098" width="16.012" height="15.636"/>
			<rect x="103.894" y="128.098" width="16.012" height="15.636"/>
			<path d="M112.082,335.871h287.835v-47.66H112.082V335.871z M127.717,303.847h256.563v16.388H127.717V303.847z"/>
			<rect x="167.937" y="256.186" width="176.13" height="15.636"/>
			<rect x="167.937" y="352.261" width="16.012" height="15.636"/>
			<rect x="199.959" y="352.261" width="16.012" height="15.636"/>
			<rect x="231.981" y="352.261" width="16.012" height="15.636"/>
			<rect x="264.003" y="352.261" width="16.011" height="15.636"/>
			<rect x="296.035" y="352.261" width="16.011" height="15.636"/>
			<rect x="328.057" y="352.261" width="16.011" height="15.636"/>
		</g>
	</g>
</g>
<g>
</g>
<g>
</g>
<g>
</g>
<g>
</g>
<g>
</g>
<g>
</g>
<g>
</g>
<g>
</g>
<g>
</g>
<g>
</g>
<g>
</g>
<g>
</g>
<g>
</g>
<g>
</g>
<g>
</g>
</svg>
