<?xml version="1.0" encoding="iso-8859-1"?>
<!-- Generator: Adobe Illustrator 19.0.0, SVG Export Plug-In . SVG Version: 6.00 Build 0)  -->
<svg version="1.1" id="Layer_1" xmlns="http://www.w3.org/2000/svg" xmlns:xlink="http://www.w3.org/1999/xlink" x="0px" y="0px"
	 viewBox="0 0 512 512" style="enable-background:new 0 0 512 512;" xml:space="preserve">
<g>
	<g>
		<g>
			<path d="M384.094,251.617l-34.961,30.591H0v167.746h512V282.208h-92.946L384.094,251.617z M496.365,434.321H15.634V297.842
				h339.374l29.086-25.451l29.085,25.451h83.187V434.321z"/>
			<rect x="280.02" y="358.261" width="16.012" height="15.634"/>
			<rect x="247.991" y="358.261" width="16.012" height="15.634"/>
			<rect x="215.974" y="358.261" width="16.012" height="15.634"/>
			<path d="M0,62.046v167.746h92.946l34.96,30.591l34.961-30.591H512V62.046H0z M496.366,214.158H156.992l-29.086,25.451
				l-29.085-25.451H15.634V77.679h480.733V214.158z"/>
			<rect x="55.853" y="102.077" width="216.161" height="15.634"/>
			<rect x="55.853" y="134.095" width="56.041" height="15.634"/>
			<rect x="55.853" y="166.123" width="128.092" height="15.634"/>
			<rect x="199.954" y="166.123" width="24.013" height="15.634"/>
			<path d="M404.109,197.768c28.59,0,51.849-23.26,51.849-51.849s-23.259-51.85-51.849-51.85c-28.591,0-51.85,23.26-51.85,51.85
				C352.26,174.509,375.519,197.768,404.109,197.768z M404.109,109.703c19.968,0,36.215,16.246,36.215,36.216
				c0,19.969-16.247,36.216-36.215,36.216c-19.969,0-36.216-16.247-36.216-36.216C367.893,125.95,384.14,109.703,404.109,109.703z"
				/>
		</g>
	</g>
</g>
<g>
</g>
<g>
</g>
<g>
</g>
<g>
</g>
<g>
</g>
<g>
</g>
<g>
</g>
<g>
</g>
<g>
</g>
<g>
</g>
<g>
</g>
<g>
</g>
<g>
</g>
<g>
</g>
<g>
</g>
</svg>
