<?xml version="1.0" encoding="iso-8859-1"?>
<!-- Generator: Adobe Illustrator 19.0.0, SVG Export Plug-In . SVG Version: 6.00 Build 0)  -->
<svg version="1.1" id="Layer_1" xmlns="http://www.w3.org/2000/svg" xmlns:xlink="http://www.w3.org/1999/xlink" x="0px" y="0px"
	 viewBox="0 0 512 512" style="enable-background:new 0 0 512 512;" xml:space="preserve">
<g>
	<g>
		<g>
			<path d="M437.019,74.981C388.667,26.629,324.38,0,256,0S123.333,26.629,74.98,74.981C26.629,123.333,0,187.62,0,256
				s26.629,132.667,74.98,181.02C123.332,485.371,187.62,512,256,512s132.667-26.629,181.02-74.98
				C485.371,388.667,512,324.381,512,256S485.371,123.333,437.019,74.981z M425.981,425.98
				C380.578,471.384,320.21,496.388,256,496.388S131.422,471.384,86.019,425.98C40.616,380.577,15.611,320.211,15.611,256
				S40.616,131.422,86.019,86.019C131.422,40.615,191.79,15.611,256,15.611s124.578,25.004,169.981,70.408
				C471.384,131.422,496.389,191.79,496.389,256S471.384,380.577,425.981,425.98z"/>
			<path d="M256,168.133c-48.45,0-87.867,39.417-87.867,87.869c0,48.45,39.417,87.867,87.867,87.867s87.869-39.417,87.869-87.867
				C343.869,207.55,304.45,168.133,256,168.133z M256,328.257c-39.843,0-72.257-32.414-72.257-72.257
				c0-39.843,32.414-72.258,72.257-72.258s72.258,32.414,72.258,72.258C328.258,295.843,295.843,328.257,256,328.257z"/>
			<path d="M256,208.164c-26.377,0-47.836,21.46-47.836,47.837c0,26.377,21.46,47.836,47.836,47.836s47.836-21.459,47.836-47.836
				C303.836,229.623,282.377,208.164,256,208.164z M256,288.226c-17.769,0-32.226-14.457-32.226-32.226
				c0-17.769,14.457-32.227,32.226-32.227c17.769,0,32.226,14.458,32.226,32.227C288.226,273.769,273.769,288.226,256,288.226z"/>
			<path d="M256,40.032v15.611c110.478,0,200.358,89.88,200.358,200.358h15.611C471.968,136.915,375.086,40.032,256,40.032z"/>
			<path d="M225.165,57.999l-2.381-15.428c-14.147,2.185-28.123,5.8-41.54,10.751l5.403,14.645
				C199.088,63.377,212.047,60.025,225.165,57.999z"/>
		</g>
	</g>
</g>
<g>
</g>
<g>
</g>
<g>
</g>
<g>
</g>
<g>
</g>
<g>
</g>
<g>
</g>
<g>
</g>
<g>
</g>
<g>
</g>
<g>
</g>
<g>
</g>
<g>
</g>
<g>
</g>
<g>
</g>
</svg>
