<?xml version="1.0" encoding="iso-8859-1"?>
<!-- Generator: Adobe Illustrator 19.0.0, SVG Export Plug-In . SVG Version: 6.00 Build 0)  -->
<svg version="1.1" id="Layer_1" xmlns="http://www.w3.org/2000/svg" xmlns:xlink="http://www.w3.org/1999/xlink" x="0px" y="0px"
	 viewBox="0 0 512 512" style="enable-background:new 0 0 512 512;" xml:space="preserve">
<g>
	<g>
		<g>
			<path d="M437.597,0H210.335c-17.598,0-31.914,14.317-31.914,31.914v56.01h15.82V59.456c4.728,2.774,10.227,4.373,16.094,4.373
				h16.003c8.875,0,16.095,7.22,16.095,16.094c0,8.874-7.22,16.094-16.095,16.094H90.223v-8.092h-15.82V512h15.82V327.875h136.116
				c17.598,0,31.915-14.317,31.915-31.914V79.923c0-17.598-14.317-31.914-31.915-31.914h-16.003c-8.874,0-16.094-7.22-16.094-16.094
				c0-8.874,7.22-16.095,16.094-16.095h204.814l-37.182,104.11l37.182,104.11H266.345v15.82h171.253l-42.832-119.93L437.597,0z
				 M242.433,295.961h-0.001c0,8.875-7.22,16.094-16.095,16.094H90.223V111.837h136.116c5.867,0,11.365-1.599,16.095-4.373V295.961z
				"/>
			<rect x="74.406" y="55.918" width="15.82" height="24.004"/>
			<rect x="106.32" y="280.053" width="16.003" height="15.82"/>
			<rect x="138.318" y="280.053" width="16.002" height="15.82"/>
			<rect x="170.327" y="280.053" width="16.003" height="15.82"/>
		</g>
	</g>
</g>
<g>
</g>
<g>
</g>
<g>
</g>
<g>
</g>
<g>
</g>
<g>
</g>
<g>
</g>
<g>
</g>
<g>
</g>
<g>
</g>
<g>
</g>
<g>
</g>
<g>
</g>
<g>
</g>
<g>
</g>
</svg>
