<?xml version="1.0" encoding="iso-8859-1"?>
<!-- Generator: Adobe Illustrator 19.0.0, SVG Export Plug-In . SVG Version: 6.00 Build 0)  -->
<svg version="1.1" id="Layer_1" xmlns="http://www.w3.org/2000/svg" xmlns:xlink="http://www.w3.org/1999/xlink" x="0px" y="0px"
	 viewBox="0 0 512 512" style="enable-background:new 0 0 512 512;" xml:space="preserve">
<g>
	<g>
		<g>
			<path d="M117.383,244.094H52.889v219.087h64.495V244.094z M101.709,447.507H68.563V259.769h33.146V447.507z"/>
			<rect x="28.478" y="276.343" width="15.675" height="154.593"/>
			<path d="M394.622,235.359h32.247v-15.675h-16.572v-65.391C410.297,69.216,341.08,0,256.002,0S101.709,69.216,101.709,154.293
				v65.391H85.135v15.675h32.248v-81.066c0-76.435,62.183-138.619,138.619-138.619s138.619,62.184,138.619,138.619L394.622,235.359
				L394.622,235.359z"/>
			<path d="M394.622,463.182h64.494V244.094h-64.494V463.182z M410.297,259.769h33.144v187.738h-33.144V259.769z"/>
			<rect x="467.847" y="276.343" width="15.675" height="154.593"/>
			<polygon points="117.383,471.916 52.59,471.916 52.59,487.591 101.709,487.591 101.709,512 223.092,512 223.092,496.325 
				117.383,496.325 			"/>
			<rect x="231.589" y="496.32" width="48.82" height="15.675"/>
		</g>
	</g>
</g>
<g>
</g>
<g>
</g>
<g>
</g>
<g>
</g>
<g>
</g>
<g>
</g>
<g>
</g>
<g>
</g>
<g>
</g>
<g>
</g>
<g>
</g>
<g>
</g>
<g>
</g>
<g>
</g>
<g>
</g>
</svg>
