<?xml version="1.0" encoding="iso-8859-1"?>
<!-- Generator: Adobe Illustrator 19.0.0, SVG Export Plug-In . SVG Version: 6.00 Build 0)  -->
<svg version="1.1" id="Layer_1" xmlns="http://www.w3.org/2000/svg" xmlns:xlink="http://www.w3.org/1999/xlink" x="0px" y="0px"
	 viewBox="0 0 512 512" style="enable-background:new 0 0 512 512;" xml:space="preserve">
<g>
	<g>
		<g>
			<path d="M136,0v48h16v88c0,57.345,46.654,104,104,104s104-46.654,104-104V48h16V0H136z M344.001,136c0,48.524-39.476,88-88,88
				c-48.524,0-88-39.476-88-88V48h176V136z M360,32h-208V16h208V32z"/>
			<path d="M360,376c0-57.345-46.655-104-104-104s-104,46.654-104,104v88h-16v48h240v-48h-16V376z M168,376
				c0-48.524,39.476-88,88-88s88,39.476,88,88v88H168V376z M360,496h-208v-16h208V496z"/>
			<rect x="232.005" y="247.998" width="47.999" height="16"/>
			
				<rect x="212.197" y="84.686" transform="matrix(0.7071 0.7071 -0.7071 0.7071 132.3194 -127.4464)" width="15.608" height="22.627"/>
			
				<rect x="248.185" y="53.781" transform="matrix(0.7071 0.7071 -0.7071 0.7071 157.0043 -147.0346)" width="15.608" height="124.445"/>
			
				<rect x="268.207" y="129.374" transform="matrix(-0.7071 -0.7071 0.7071 -0.7071 363.6992 454.6508)" width="15.608" height="45.254"/>
			
				<rect x="212.191" y="348.683" transform="matrix(0.7071 0.7071 -0.7071 0.7071 318.9908 -50.1195)" width="15.608" height="22.627"/>
			
				<rect x="248.191" y="317.785" transform="matrix(-0.7071 -0.7071 0.7071 -0.7071 168.3047 829.7299)" width="15.608" height="124.445"/>
			
				<rect x="268.202" y="393.38" transform="matrix(-0.7071 -0.7071 0.7071 -0.7071 177.0106 905.3336)" width="15.608" height="45.254"/>
		</g>
	</g>
</g>
<g>
</g>
<g>
</g>
<g>
</g>
<g>
</g>
<g>
</g>
<g>
</g>
<g>
</g>
<g>
</g>
<g>
</g>
<g>
</g>
<g>
</g>
<g>
</g>
<g>
</g>
<g>
</g>
<g>
</g>
</svg>
