<?xml version="1.0" encoding="iso-8859-1"?>
<!-- Generator: Adobe Illustrator 19.0.0, SVG Export Plug-In . SVG Version: 6.00 Build 0)  -->
<svg version="1.1" id="Layer_1" xmlns="http://www.w3.org/2000/svg" xmlns:xlink="http://www.w3.org/1999/xlink" x="0px" y="0px"
	 viewBox="0 0 512 512" style="enable-background:new 0 0 512 512;" xml:space="preserve">
<g>
	<g>
		<path d="M496.227,63.971v17.401L15.773,166.614v-14.362H0v175.599h15.773V313.49l72.267,12.821v49.802
			c0,39.654,32.261,71.916,71.916,71.916c39.655,0,71.916-32.262,71.916-71.916V351.83l264.355,46.902v17.4H512V63.971H496.227z
			 M56.025,304.613l-40.252-7.141V182.634l40.252-7.142V304.613z M216.099,376.114c0,30.957-25.186,56.143-56.143,56.143
			s-56.143-25.185-56.143-56.143v-47.003l112.286,19.921V376.114z M440.202,372.774L71.798,307.411V172.693l368.404-65.363V372.774z
			 M496.227,382.714l-40.252-7.142V104.532l40.252-7.142V382.714z"/>
	</g>
</g>
<g>
</g>
<g>
</g>
<g>
</g>
<g>
</g>
<g>
</g>
<g>
</g>
<g>
</g>
<g>
</g>
<g>
</g>
<g>
</g>
<g>
</g>
<g>
</g>
<g>
</g>
<g>
</g>
<g>
</g>
</svg>
