<?xml version="1.0" encoding="iso-8859-1"?>
<!-- Generator: Adobe Illustrator 19.0.0, SVG Export Plug-In . SVG Version: 6.00 Build 0)  -->
<svg version="1.1" id="Layer_1" xmlns="http://www.w3.org/2000/svg" xmlns:xlink="http://www.w3.org/1999/xlink" x="0px" y="0px"
	 viewBox="0 0 512 512" style="enable-background:new 0 0 512 512;" xml:space="preserve">
<g>
	<g>
		<g>
			<path d="M15.683,269.022v-39.764H0v39.764c0,43.791,35.625,79.416,79.416,79.416h325.951v-15.683H79.416
				C44.274,332.755,15.683,304.164,15.683,269.022z"/>
			<rect x="413.319" y="332.75" width="31.811" height="15.683"/>
			<polygon points="442.723,271.319 431.633,282.409 481.98,332.755 453.084,332.755 453.084,348.438 481.98,348.438 
				431.633,398.784 442.723,409.874 512,340.597 			"/>
			<path d="M79.416,117.809h39.764v-15.683H79.416C35.625,102.126,0,137.752,0,181.543h15.683
				C15.683,146.399,44.274,117.809,79.416,117.809z"/>
			<rect x="0" y="189.492" width="15.683" height="31.811"/>
		</g>
	</g>
</g>
<g>
</g>
<g>
</g>
<g>
</g>
<g>
</g>
<g>
</g>
<g>
</g>
<g>
</g>
<g>
</g>
<g>
</g>
<g>
</g>
<g>
</g>
<g>
</g>
<g>
</g>
<g>
</g>
<g>
</g>
</svg>
