<?xml version="1.0" encoding="iso-8859-1"?>
<!-- Generator: Adobe Illustrator 19.0.0, SVG Export Plug-In . SVG Version: 6.00 Build 0)  -->
<svg version="1.1" id="Layer_1" xmlns="http://www.w3.org/2000/svg" xmlns:xlink="http://www.w3.org/1999/xlink" x="0px" y="0px"
	 viewBox="0 0 512.003 512.003" style="enable-background:new 0 0 512.003 512.003;" xml:space="preserve">
<g>
	<g>
		<g>
			<rect x="248.169" y="492.311" width="15.674" height="19.692"/>
			<path d="M263.838,21.898V0h-15.674v21.898C166.033,25.994,100.473,94.1,100.473,177.231v303.221h311.058V177.231
				C411.531,94.1,345.971,25.994,263.838,21.898z M395.857,464.778H116.146V177.231c0-77.117,62.739-139.855,139.855-139.855
				s139.855,62.739,139.855,139.855V464.778z"/>
			<path d="M256.002,61.086v15.674c55.4,0,100.47,45.071,100.47,100.47h15.674C372.146,113.188,320.044,61.086,256.002,61.086z"/>
			<path d="M203.198,73.757l7.135,13.956c8.64-4.417,17.857-7.545,27.392-9.297l-2.833-15.416
				C223.859,65.028,213.195,68.647,203.198,73.757z"/>
		</g>
	</g>
</g>
<g>
</g>
<g>
</g>
<g>
</g>
<g>
</g>
<g>
</g>
<g>
</g>
<g>
</g>
<g>
</g>
<g>
</g>
<g>
</g>
<g>
</g>
<g>
</g>
<g>
</g>
<g>
</g>
<g>
</g>
</svg>
