<?xml version="1.0" encoding="iso-8859-1"?>
<!-- Generator: Adobe Illustrator 19.0.0, SVG Export Plug-In . SVG Version: 6.00 Build 0)  -->
<svg version="1.1" id="Layer_1" xmlns="http://www.w3.org/2000/svg" xmlns:xlink="http://www.w3.org/1999/xlink" x="0px" y="0px"
	 viewBox="0 0 512 512" style="enable-background:new 0 0 512 512;" xml:space="preserve">
<g>
	<g>
		<g>
			<rect x="175.959" y="464.243" width="160.087" height="15.735"/>
			<path d="M128.068,256.136V512h255.864V256.136H128.068z M368.197,464.248h-16.145v15.735h16.145v16.281H143.803v-16.281h16.146
				v-15.735h-16.146V271.871h224.394V464.248z"/>
			<path d="M199.971,232.124h-16.145V87.91c0-39.798,32.377-72.175,72.175-72.175s72.175,32.377,72.175,72.175v144.214H312.03
				v15.735h48.025v-15.735h-16.145V87.91c0-48.474-39.436-87.91-87.91-87.91s-87.91,39.436-87.91,87.91v144.214h-16.145v15.735
				h48.025V232.124z"/>
			<path d="M248.133,382.947v33.138h15.735v-33.138c13.787-3.512,24.013-16.032,24.013-30.896c0-17.579-14.301-31.88-31.88-31.88
				c-17.579,0-31.88,14.301-31.88,31.88C224.121,366.916,234.346,379.435,248.133,382.947z M256.001,335.906
				c8.903,0,16.145,7.242,16.145,16.145s-7.242,16.146-16.145,16.146c-8.903,0-16.145-7.243-16.145-16.146
				S247.098,335.906,256.001,335.906z"/>
		</g>
	</g>
</g>
<g>
</g>
<g>
</g>
<g>
</g>
<g>
</g>
<g>
</g>
<g>
</g>
<g>
</g>
<g>
</g>
<g>
</g>
<g>
</g>
<g>
</g>
<g>
</g>
<g>
</g>
<g>
</g>
<g>
</g>
</svg>
