<?xml version="1.0" encoding="iso-8859-1"?>
<!-- Generator: Adobe Illustrator 19.0.0, SVG Export Plug-In . SVG Version: 6.00 Build 0)  -->
<svg version="1.1" id="Layer_1" xmlns="http://www.w3.org/2000/svg" xmlns:xlink="http://www.w3.org/1999/xlink" x="0px" y="0px"
	 viewBox="0 0 512 512" style="enable-background:new 0 0 512 512;" xml:space="preserve">
<g>
	<g>
		<g>
			<rect x="408.098" y="100.063" width="72.045" height="15.687"/>
			<path d="M255.999,419.942c52.88,0,95.9-43.02,95.9-95.899c0-52.88-43.021-95.899-95.9-95.899s-95.898,43.021-95.898,95.899
				C160.101,376.921,203.12,419.942,255.999,419.942z M255.999,243.83c44.231,0,80.213,35.983,80.213,80.212
				s-35.982,80.212-80.213,80.212c-44.229,0-80.211-35.982-80.211-80.212S211.77,243.83,255.999,243.83z"/>
			<path d="M255.999,393.525c38.316,0,69.483-31.169,69.483-69.482s-31.168-69.482-69.483-69.482
				c-38.312,0-69.482,31.169-69.482,69.482C186.517,362.356,217.687,393.525,255.999,393.525z M255.999,270.248
				c29.664,0,53.796,24.132,53.796,53.795c0,29.662-24.132,53.795-53.796,53.795c-29.66,0-53.795-24.132-53.795-53.795
				C202.204,294.38,226.339,270.248,255.999,270.248z"/>
			<path d="M351.899,124.078V60.038H160.101v64.033L0,123.92v328.042h512V124.078H351.899z M496.313,436.275H15.687V211.811h480.625
				V436.275z M496.313,196.123H15.687v-8.328h480.625V196.123z M496.313,172.108H15.687v-32.486l160.101,0.151V75.725h160.424
				v64.041h160.101V172.108z"/>
			<path d="M192.121,155.776h127.758V92.057H192.121V155.776z M207.808,107.745h96.383v32.343h-96.383V107.745z"/>
			<rect x="223.982" y="116.075" width="64.035" height="15.687"/>
			<rect x="31.86" y="404.26" width="16.008" height="15.687"/>
			<rect x="63.878" y="404.26" width="16.01" height="15.687"/>
			<rect x="95.901" y="404.26" width="16.011" height="15.687"/>
			<rect x="392.087" y="404.26" width="88.058" height="15.687"/>
		</g>
	</g>
</g>
<g>
</g>
<g>
</g>
<g>
</g>
<g>
</g>
<g>
</g>
<g>
</g>
<g>
</g>
<g>
</g>
<g>
</g>
<g>
</g>
<g>
</g>
<g>
</g>
<g>
</g>
<g>
</g>
<g>
</g>
</svg>
