<?xml version="1.0" encoding="iso-8859-1"?>
<!-- Generator: Adobe Illustrator 19.0.0, SVG Export Plug-In . SVG Version: 6.00 Build 0)  -->
<svg version="1.1" id="Layer_1" xmlns="http://www.w3.org/2000/svg" xmlns:xlink="http://www.w3.org/1999/xlink" x="0px" y="0px"
	 viewBox="0 0 511.999 511.999" style="enable-background:new 0 0 511.999 511.999;" xml:space="preserve">
<g>
	<g>
		<g>
			<path d="M435.879,133.731c-33.07-40.592-79.292-69.07-130.15-80.184l-3.339,15.277c47.419,10.361,90.52,36.921,121.365,74.783
				c31.28,38.396,48.506,86.87,48.506,136.493c0,119.247-97.015,216.261-216.261,216.261S39.739,399.347,39.739,280.101
				c0-49.63,17.23-98.109,48.518-136.507c30.853-37.866,73.966-64.423,121.394-74.777l-3.335-15.277
				c-50.87,11.105-97.102,39.578-130.182,80.175c-33.555,41.18-52.033,93.168-52.033,146.386
				c0,61.943,24.122,120.177,67.921,163.977S194.057,511.999,256,511.999c61.942,0,120.177-24.122,163.977-67.921
				c43.8-43.799,67.921-102.035,67.921-163.977C487.899,226.891,469.424,174.909,435.879,133.731z"/>
			<rect x="248.185" y="0" width="15.637" height="168.059"/>
		</g>
	</g>
</g>
<g>
</g>
<g>
</g>
<g>
</g>
<g>
</g>
<g>
</g>
<g>
</g>
<g>
</g>
<g>
</g>
<g>
</g>
<g>
</g>
<g>
</g>
<g>
</g>
<g>
</g>
<g>
</g>
<g>
</g>
</svg>
