<?xml version="1.0" encoding="iso-8859-1"?>
<!-- Generator: Adobe Illustrator 19.0.0, SVG Export Plug-In . SVG Version: 6.00 Build 0)  -->
<svg version="1.1" id="Layer_1" xmlns="http://www.w3.org/2000/svg" xmlns:xlink="http://www.w3.org/1999/xlink" x="0px" y="0px"
	 viewBox="0 0 511.999 511.999" style="enable-background:new 0 0 511.999 511.999;" xml:space="preserve">
<g>
	<g>
		<g>
			<rect x="247.992" y="180.082" width="16.008" height="15.774"/>
			<rect x="215.982" y="180.082" width="16.007" height="15.774"/>
			<rect x="280.012" y="180.082" width="16.008" height="15.774"/>
			<polygon points="351.927,348.043 336.153,348.043 336.153,364.167 175.847,364.167 175.847,348.043 160.073,348.043 
				160.073,379.94 351.927,379.94 			"/>
			<path d="M383.941,124.057V44.02H128.058v80.036H0v263.886h128.058v80.036h255.883v-80.036h128.058V124.057H383.941z
				 M143.832,59.794h224.336v64.263H143.832V59.794z M15.774,139.831h32.248v24.127h15.774v-24.127h16.24v24.127H95.81v-24.127
				h400.416v96.445H15.774V139.831z M368.167,452.206H143.832V331.918h224.336V452.206z M496.226,372.17H383.941v-56.026H128.058
				v56.026H15.774v-96.278h480.453V372.17z M496.226,260.119H15.774v-8.071h480.453V260.119z"/>
		</g>
	</g>
</g>
<g>
</g>
<g>
</g>
<g>
</g>
<g>
</g>
<g>
</g>
<g>
</g>
<g>
</g>
<g>
</g>
<g>
</g>
<g>
</g>
<g>
</g>
<g>
</g>
<g>
</g>
<g>
</g>
<g>
</g>
</svg>
