<?xml version="1.0" encoding="iso-8859-1"?>
<!-- Generator: Adobe Illustrator 19.0.0, SVG Export Plug-In . SVG Version: 6.00 Build 0)  -->
<svg version="1.1" id="Layer_1" xmlns="http://www.w3.org/2000/svg" xmlns:xlink="http://www.w3.org/1999/xlink" x="0px" y="0px"
	 viewBox="0 0 512 512" style="enable-background:new 0 0 512 512;" xml:space="preserve">
<g>
	<g>
		<g>
			<path d="M18.747,271.808v-39.52H3.216v39.52c0,43.505,35.394,78.899,78.899,78.899h323.947v-15.531H82.116
				C47.175,335.177,18.747,306.75,18.747,271.808z"/>
			<rect x="413.962" y="335.179" width="31.615" height="15.531"/>
			<path d="M493.253,240.192v39.519h15.531v-39.519c0-43.505-35.394-78.899-78.899-78.899H105.937v15.531h323.947
				C464.826,176.823,493.253,205.25,493.253,240.192z"/>
			<rect x="66.421" y="161.294" width="31.615" height="15.531"/>
			<polygon points="443.169,274.11 432.187,285.094 482.271,335.177 453.486,335.177 453.486,350.708 482.271,350.708 
				432.187,400.791 443.169,411.773 512,342.942 			"/>
			<polygon points="79.813,226.906 29.729,176.823 58.514,176.823 58.514,161.292 29.729,161.292 79.813,111.209 68.831,100.226 
				0,169.058 68.831,237.89 			"/>
		</g>
	</g>
</g>
<g>
</g>
<g>
</g>
<g>
</g>
<g>
</g>
<g>
</g>
<g>
</g>
<g>
</g>
<g>
</g>
<g>
</g>
<g>
</g>
<g>
</g>
<g>
</g>
<g>
</g>
<g>
</g>
<g>
</g>
</svg>
