<?xml version="1.0" encoding="iso-8859-1"?>
<!-- Generator: Adobe Illustrator 19.0.0, SVG Export Plug-In . SVG Version: 6.00 Build 0)  -->
<svg version="1.1" id="Layer_1" xmlns="http://www.w3.org/2000/svg" xmlns:xlink="http://www.w3.org/1999/xlink" x="0px" y="0px"
	 viewBox="0 0 512 512" style="enable-background:new 0 0 512 512;" xml:space="preserve">
<g>
	<g>
		<g>
			<path d="M88.061,512h335.879V240.166H88.061V512z M103.717,255.823h304.566v48.388H103.717V255.823z M103.717,319.867h304.566
				v48.388H103.717V319.867z M103.717,383.912h304.566V432.3H103.717V383.912z M103.717,447.956h304.566v48.387H103.717V447.956z"/>
			<path d="M0,0v175.768h205.594L256,209.37l50.404-33.602H512V0H0z M496.343,160.111H301.663L256,190.554l-45.666-30.443H15.657
				V15.657h480.687V160.111z"/>
			<rect x="215.977" y="80.057" width="16.011" height="15.657"/>
			<rect x="247.989" y="80.057" width="16.011" height="15.657"/>
			<rect x="280.012" y="80.057" width="16.011" height="15.657"/>
		</g>
	</g>
</g>
<g>
</g>
<g>
</g>
<g>
</g>
<g>
</g>
<g>
</g>
<g>
</g>
<g>
</g>
<g>
</g>
<g>
</g>
<g>
</g>
<g>
</g>
<g>
</g>
<g>
</g>
<g>
</g>
<g>
</g>
</svg>
