<?xml version="1.0" encoding="iso-8859-1"?>
<!-- Generator: Adobe Illustrator 19.0.0, SVG Export Plug-In . SVG Version: 6.00 Build 0)  -->
<svg version="1.1" id="Layer_1" xmlns="http://www.w3.org/2000/svg" xmlns:xlink="http://www.w3.org/1999/xlink" x="0px" y="0px"
	 viewBox="0 0 512 512" style="enable-background:new 0 0 512 512;" xml:space="preserve">
<g>
	<g>
		<g>
			<path d="M255.999,0L126.821,120.567V512h258.359V120.567L255.999,0z M142.513,496.308V127.387L255.999,21.466l113.486,105.921
				v368.921H142.513z"/>
			<rect x="248.158" y="75.438" width="15.692" height="48.531"/>
			<rect x="167.018" y="285.997" width="64.711" height="15.692"/>
			<rect x="167.018" y="318.354" width="137.506" height="15.692"/>
			<rect x="167.018" y="350.712" width="24.271" height="15.692"/>
			<rect x="207.462" y="350.712" width="72.802" height="15.692"/>
			<rect x="167.018" y="383.069" width="64.711" height="15.692"/>
			<rect x="167.018" y="439.687" width="16.179" height="15.692"/>
			<rect x="199.376" y="439.687" width="16.178" height="15.692"/>
			<rect x="231.733" y="439.687" width="16.178" height="15.692"/>
			<rect x="264.09" y="439.687" width="16.178" height="15.692"/>
			<rect x="296.448" y="439.687" width="16.178" height="15.692"/>
			<rect x="328.795" y="439.687" width="16.179" height="15.692"/>
		</g>
	</g>
</g>
<g>
</g>
<g>
</g>
<g>
</g>
<g>
</g>
<g>
</g>
<g>
</g>
<g>
</g>
<g>
</g>
<g>
</g>
<g>
</g>
<g>
</g>
<g>
</g>
<g>
</g>
<g>
</g>
<g>
</g>
</svg>
