<?xml version="1.0" encoding="iso-8859-1"?>
<!-- Generator: Adobe Illustrator 19.0.0, SVG Export Plug-In . SVG Version: 6.00 Build 0)  -->
<svg version="1.1" id="Layer_1" xmlns="http://www.w3.org/2000/svg" xmlns:xlink="http://www.w3.org/1999/xlink" x="0px" y="0px"
	 viewBox="0 0 511.994 511.994" style="enable-background:new 0 0 511.994 511.994;" xml:space="preserve">
<g>
	<g>
		<g>
			<path d="M111.84,271.718h288.319v40.001h111.68v-47.841c0-48.434-39.405-87.839-87.839-87.839H88
				c-48.436,0-87.84,39.405-87.84,87.839v47.841h111.68V271.718z M96.159,296.037h-80.32v-32.161
				c0-39.789,32.371-72.159,72.16-72.159h336c39.789,0,72.159,32.371,72.159,72.159v32.161h-80.32v-40.001H96.159V296.037z"/>
			<rect x="0" y="320.275" width="111.997" height="15.68"/>
			<rect x="399.997" y="320.275" width="111.997" height="15.68"/>
			<rect x="143.995" y="200.041" width="152.002" height="15.68"/>
			<rect x="312.001" y="200.041" width="24" height="15.68"/>
		</g>
	</g>
</g>
<g>
</g>
<g>
</g>
<g>
</g>
<g>
</g>
<g>
</g>
<g>
</g>
<g>
</g>
<g>
</g>
<g>
</g>
<g>
</g>
<g>
</g>
<g>
</g>
<g>
</g>
<g>
</g>
<g>
</g>
</svg>
