<?xml version="1.0" encoding="iso-8859-1"?>
<!-- Generator: Adobe Illustrator 19.0.0, SVG Export Plug-In . SVG Version: 6.00 Build 0)  -->
<svg version="1.1" id="Layer_1" xmlns="http://www.w3.org/2000/svg" xmlns:xlink="http://www.w3.org/1999/xlink" x="0px" y="0px"
	 viewBox="0 0 512 512" style="enable-background:new 0 0 512 512;" xml:space="preserve">
<g>
	<g>
		<g>
			<rect x="175.974" y="464.124" width="160.046" height="15.865"/>
			<path d="M128.034,256.07V512h255.931V256.07H128.034z M368.101,496.135H143.899v-16.144h16.074v-15.865h-16.074V271.935h224.201
				v192.191h-16.074v15.865h16.074V496.135z"/>
			<path d="M199.985,232.063h-16.074V87.954c0-39.75,32.339-72.089,72.089-72.089s72.089,32.339,72.089,72.089v88.024h15.865V87.954
				C343.954,39.456,304.498,0,256,0s-87.954,39.456-87.954,87.954v144.109h-16.074v15.865h48.014V232.063z"/>
			<rect x="312.011" y="232.062" width="48.018" height="15.865"/>
			<path d="M248.068,382.967v33.076h15.865v-33.076c13.787-3.537,24.007-16.067,24.007-30.941c0-17.611-14.328-31.939-31.939-31.939
				s-31.939,14.328-31.939,31.939C224.061,366.9,234.281,379.43,248.068,382.967z M256,335.952c8.863,0,16.074,7.211,16.074,16.074
				S264.863,368.1,256,368.1c-8.863,0-16.074-7.21-16.074-16.073S247.137,335.952,256,335.952z"/>
		</g>
	</g>
</g>
<g>
</g>
<g>
</g>
<g>
</g>
<g>
</g>
<g>
</g>
<g>
</g>
<g>
</g>
<g>
</g>
<g>
</g>
<g>
</g>
<g>
</g>
<g>
</g>
<g>
</g>
<g>
</g>
<g>
</g>
</svg>
