<?xml version="1.0" encoding="iso-8859-1"?>
<!-- Generator: Adobe Illustrator 19.0.0, SVG Export Plug-In . SVG Version: 6.00 Build 0)  -->
<svg version="1.1" id="Layer_1" xmlns="http://www.w3.org/2000/svg" xmlns:xlink="http://www.w3.org/1999/xlink" x="0px" y="0px"
	 viewBox="0 0 511.997 511.997" style="enable-background:new 0 0 511.997 511.997;" xml:space="preserve">
<g>
	<g>
		<g>
			<path d="M165.343,240.157V74.887H0.073v165.27H165.343z M15.683,90.497h134.05v134.05H15.683V90.497z"/>
			<path d="M338.634,240.157V74.887h-165.27v165.27H338.634z M188.974,90.497h134.05v134.05h-134.05V90.497z"/>
			<path d="M511.926,240.157V74.887h-165.27v165.27H511.926z M362.266,90.497h134.05v134.05h-134.05V90.497z"/>
			<rect x="0" y="27.656" width="511.994" height="15.61"/>
			<path d="M0.073,484.341h165.27V319.07H0.073V484.341z M15.683,334.68h134.05v134.05H15.683V334.68z"/>
			<path d="M173.364,484.341h165.27V319.07h-165.27V484.341z M188.974,334.68h134.05v134.05h-134.05V334.68z"/>
			<path d="M346.656,484.341h165.27V319.07h-165.27V484.341z M362.266,334.68h134.05v134.05h-134.05V334.68z"/>
			<rect x="0.002" y="271.835" width="511.994" height="15.61"/>
		</g>
	</g>
</g>
<g>
</g>
<g>
</g>
<g>
</g>
<g>
</g>
<g>
</g>
<g>
</g>
<g>
</g>
<g>
</g>
<g>
</g>
<g>
</g>
<g>
</g>
<g>
</g>
<g>
</g>
<g>
</g>
<g>
</g>
</svg>
